<svg version="1.1" id="Layer_1" xmlns="http://www.w3.org/2000/svg" xmlns:xlink="http://www.w3.org/1999/xlink" x="0px" y="0px"
	 width="100%" viewBox="0 0 760 760" enable-background="new 0 0 760 760" xml:space="preserve">
<path fill="#C0FE04" opacity="1.000000" stroke="none" 
	d="
M408.000000,761.000000 
	C272.000000,761.000000 136.500000,761.000000 1.000000,761.000000 
	C1.000000,507.666656 1.000000,254.333328 1.000000,1.000000 
	C254.333328,1.000000 507.666656,1.000000 761.000000,1.000000 
	C761.000000,254.333328 761.000000,507.666656 761.000000,761.000000 
	C643.500000,761.000000 526.000000,761.000000 408.000000,761.000000 
M345.303009,626.500183 
	C345.302979,582.332458 345.223877,538.164307 345.413788,493.997406 
	C345.434967,489.072235 343.955811,487.098541 339.119385,485.965332 
	C247.159653,464.418854 187.018921,373.171997 203.219604,280.028748 
	C220.540802,180.443207 315.620331,114.397987 415.111359,132.842117 
	C527.751099,153.723831 593.226501,275.093536 548.040466,380.343719 
	C524.165283,435.955292 482.080872,471.085297 423.389343,486.130829 
	C419.881775,487.030029 417.577972,487.949463 417.591003,492.513397 
	C417.754395,549.679321 417.739014,606.845947 417.621521,664.012085 
	C417.612366,668.464844 419.429993,669.664917 423.313629,668.973877 
	C431.012299,667.604004 438.766754,666.463074 446.381531,664.718628 
	C601.621277,629.155212 699.187622,473.877533 663.690979,318.431580 
	C629.412781,168.321014 481.401703,66.309586 321.267883,99.963181 
	C170.359055,131.678040 69.343582,279.730957 96.527214,431.568481 
	C114.696083,533.052979 172.834915,605.071594 266.504089,648.158142 
	C289.148773,658.574402 313.114594,664.873291 337.709045,668.767578 
	C344.695251,669.873840 345.294525,669.342285 345.300079,662.500061 
	C345.309570,650.833435 345.302917,639.166870 345.303009,626.500183 
M527.959290,666.249878 
	C527.959290,663.855286 527.959290,661.460754 527.959290,659.066162 
	C527.373108,658.865356 526.786865,658.664612 526.200684,658.463806 
	C524.819092,660.676453 523.437561,662.889160 522.079590,665.064026 
	C520.508728,662.839111 518.971130,660.661316 517.433533,658.483459 
	C517.160461,658.759644 516.887451,659.035767 516.614380,659.311890 
	C516.614380,662.536255 516.614380,665.760681 516.614380,668.985107 
	C516.954468,668.991333 517.294495,668.997559 517.634583,669.003723 
	C517.853821,667.244934 518.073120,665.486145 518.369263,663.110596 
	C519.695374,665.595947 520.699158,667.477234 522.089539,670.083130 
	C523.448853,667.252991 524.339844,665.398010 525.604370,662.765259 
	C525.900635,665.465820 526.096252,667.248352 526.291809,669.030823 
	C526.598145,669.058716 526.904480,669.086609 527.210815,669.114502 
	C527.457153,668.454773 527.703491,667.794983 527.959290,666.249878 
M510.375610,658.924011 
	C508.993866,659.004272 507.612091,659.084473 507.313019,659.101868 
	C508.146637,662.503479 508.929413,665.697510 509.861908,669.502502 
	C510.851135,665.660889 511.698456,662.370361 512.557861,659.033020 
	C512.847473,659.056580 512.035828,658.990601 510.375610,658.924011 
z"/>
<path fill="#000100" opacity="1.000000" stroke="none" 
	d="
M345.303040,627.000244 
	C345.302917,639.166870 345.309570,650.833435 345.300079,662.500061 
	C345.294525,669.342285 344.695251,669.873840 337.709045,668.767578 
	C313.114594,664.873291 289.148773,658.574402 266.504089,648.158142 
	C172.834915,605.071594 114.696083,533.052979 96.527214,431.568481 
	C69.343582,279.730957 170.359055,131.678040 321.267883,99.963181 
	C481.401703,66.309586 629.412781,168.321014 663.690979,318.431580 
	C699.187622,473.877533 601.621277,629.155212 446.381531,664.718628 
	C438.766754,666.463074 431.012299,667.604004 423.313629,668.973877 
	C419.429993,669.664917 417.612366,668.464844 417.621521,664.012085 
	C417.739014,606.845947 417.754395,549.679321 417.591003,492.513397 
	C417.577972,487.949463 419.881775,487.030029 423.389343,486.130829 
	C482.080872,471.085297 524.165283,435.955292 548.040466,380.343719 
	C593.226501,275.093536 527.751099,153.723831 415.111359,132.842117 
	C315.620331,114.397987 220.540802,180.443207 203.219604,280.028748 
	C187.018921,373.171997 247.159653,464.418854 339.119385,485.965332 
	C343.955811,487.098541 345.434967,489.072235 345.413788,493.997406 
	C345.223877,538.164307 345.302979,582.332458 345.303040,627.000244 
z"/>
<path fill="#171F00" opacity="1.000000" stroke="none" 
	d="
M527.954590,666.692505 
	C527.703491,667.794983 527.457153,668.454773 527.210815,669.114502 
	C526.904480,669.086609 526.598145,669.058716 526.291809,669.030823 
	C526.096252,667.248352 525.900635,665.465820 525.604370,662.765259 
	C524.339844,665.398010 523.448853,667.252991 522.089539,670.083130 
	C520.699158,667.477234 519.695374,665.595947 518.369263,663.110596 
	C518.073120,665.486145 517.853821,667.244934 517.634583,669.003723 
	C517.294495,668.997559 516.954468,668.991333 516.614380,668.985107 
	C516.614380,665.760681 516.614380,662.536255 516.614380,659.311890 
	C516.887451,659.035767 517.160461,658.759644 517.433533,658.483459 
	C518.971130,660.661316 520.508728,662.839111 522.079590,665.064026 
	C523.437561,662.889160 524.819092,660.676453 526.200684,658.463806 
	C526.786865,658.664612 527.373108,658.865356 527.959290,659.066162 
	C527.959290,661.460754 527.959290,663.855286 527.954590,666.692505 
z"/>
<path fill="#0F1500" opacity="1.000000" stroke="none" 
	d="
M510.799927,658.924316 
	C512.035828,658.990601 512.847473,659.056580 512.557861,659.033020 
	C511.698456,662.370361 510.851135,665.660889 509.861908,669.502502 
	C508.929413,665.697510 508.146637,662.503479 507.313019,659.101868 
	C507.612091,659.084473 508.993866,659.004272 510.799927,658.924316 
z"/>
</svg>